<?xml version="1.0" encoding="utf-8"?>
<svg width="500" height="400" xmlns="http://www.w3.org/2000/svg" xmlns:bx="https://boxy-svg.com">
  <defs>
    <bx:export>
      <bx:file format="png"/>
    </bx:export>
  </defs>
  <g aria-label="$_" transform="matrix(1.60104, 0, 0, 1.18361, 25.952021, 17.33514)" id="group-1" style="font-size: 25.7631px; font-family: Cantarell; fill: rgb(86, 255, 86); stroke-width: 0;">
    <rect stroke="#ffffff" fill="#333854" x="9.207" y="2.328" width="231.53" height="71.906" id="rect-1" stroke-width="3" rx="18" style="stroke-width: 2.384;"/>
    <path d="M 57.228 48.46 L 58.527 48.46 L 58.527 45.266 C 60.576 44.802 61.856 42.947 61.856 40.319 C 61.856 34.291 55.29 36.506 55.29 32.101 C 55.29 30.375 56.277 29.37 58.033 29.37 C 59.003 29.37 60.118 29.679 60.978 30.22 L 61.417 28.545 C 60.52 27.953 59.514 27.592 58.527 27.541 L 58.527 24.294 L 57.228 24.294 L 57.228 27.592 C 55.089 28.004 53.735 29.834 53.735 32.461 C 53.735 38.335 60.283 36.352 60.283 40.654 C 60.283 42.329 59.277 43.462 57.558 43.462 C 56.497 43.462 55.143 43.024 53.991 42.303 L 53.534 43.977 C 54.741 44.828 56.003 45.291 57.228 45.369 L 57.228 48.46 Z" id="path2637" style=""/>
    <path d="M 62.807 48.434 L 72.317 48.434 L 72.317 46.657 L 62.807 46.657 L 62.807 48.434 Z" id="path2639" style=""/>
  </g>
  <g style="" transform="matrix(0.349371, 0, 0, 0.321226, 195.607117, 0.215464)" id="object-0">
    <title>Layer 1</title>
    <rect id="svg_1" fill=" rgb(224, 224, 224)" stroke=" rgb(0, 0, 0)" height="109.082" width="238.658" y="172.671" x="103.274"/>
    <rect id="svg_2" fill=" rgb(224, 224, 224)" height="52.227" width="121.643" y="144.244" x="125.752"/>
    <path id="svg_3" fill=" rgb(224, 224, 224)" stroke=" rgb(180, 180, 180)" stroke-linejoin=" round" stroke-linecap=" round" d="m304.736,162.198c21.924,-4.053 46.426,-2.779 69.283,5.694c29.152,10.807 50.389,32.763 50.389,54.378c0,33.413 -24.079,57.856 -98.592,60.5" stroke-width="20"/>
    <path id="svg_4" fill=" rgb(224, 224, 224)" stroke=" rgb(181, 181, 181)" stroke-linecap=" round" stroke-width="20" d="m132,123.24c0,-49.446 40.084,-89.53 89.53,-89.53c49.446,0 89.53,40.084 89.53,89.53c0,31.433 -16.198,59.082 -40.703,75.056"/>
    <path id="svg_5" fill=" rgb(224, 224, 224)" stroke=" rgb(183, 183, 183)" stroke-linecap=" round" stroke-width="20" d="m111.01,282.77c-43.912,0 -79.51,-35.598 -79.51,-79.51c0,-43.912 35.598,-79.51 79.51,-79.51c30.705,0 57.344,17.405 70.591,42.886"/>
    <line id="svg_6" stroke=" rgb(180, 180, 180)" stroke-width="20" y2="282.77" x2="328.734" y1="282.77" x1="107.704"/>
    <line id="svg_7" stroke-linecap="round" stroke-width="13" stroke="#f8ff86ff" y2="21.44" x2="364.5" y1="102.25" x1="339.5"/>
    <line id="svg_8" stroke=" rgb(255, 240, 134)" stroke-width="13" stroke-linecap="round" y2="57.75" x2="437.5" y1="116.75" x1="360.5"/>
    <line id="svg_9" stroke=" rgb(255, 223, 134)" stroke-linecap="round" stroke-width="13" y2="126.25" x2="464.5" y1="137.25" x1="376.5"/>
    <line id="svg_10" stroke-linecap="round" stroke-width="16" stroke="#8691ffff" y2="305.84" x2="72" y1="360.66" x1="40"/>
    <line id="svg_11" stroke=" rgb(123, 134, 240)" stroke-linecap="round" stroke-width="16" y2="306.84" x2="196.5" y1="361.66" x1="164.5"/>
    <line id="svg_12" stroke=" rgb(119, 129, 232)" stroke-linecap="round" stroke-width="16" y2="305.84" x2="318.75" y1="360.66" x1="286.75"/>
  </g>
  <path style="fill: none; fill-opacity: 0; stroke: rgb(255, 255, 255); stroke-dasharray: none; stroke-opacity: 1; stroke-width: 7px;" id="path344" d="M 156.018 44.155 L 156.017 78.071 L 126.717 95.07 L 97.418 78.151 L 97.419 44.234 L 126.718 27.237 L 156.018 44.155 Z"/>
</svg>